# xmcd CD database file
#
# Track frame offsets:
#	150
#	10835
#	30617
#	48610
#	69467
#	93222
#	116342
#	136965
#	164927
#	188945
#
# Disc length: 2788 seconds
#
# Revision: 1
# Processed by: cddbd v1.5.2PL0 Copyright (c) Steve Scherf et al.
# Submitted via: CDex 1.70beta2
#
DISCID=860ae20a
DTITLE=曽我部恵一 - STRAWBERRY
DYEAR=2004
DGENRE=Pop
TTITLE0=サンデイ
TTITLE1=スワン
TTITLE2=シモーヌ
TTITLE3=トーキョー・ストーリー
TTITLE4=ブルーのこころ
TTITLE5=ストーミー
TTITLE6=アコースティック・ギター幻想曲
TTITLE7=LOVE-SICK
TTITLE8=STARS
TTITLE9=ミュージック！
EXTD=YEAR: 2004
EXTT0=
EXTT1=
EXTT2=
EXTT3=
EXTT4=
EXTT5=
EXTT6=
EXTT7=
EXTT8=
EXTT9=
PLAYORDER=
